.
 
http://www.scenetime.com    -  Hottest private tracker on the net. !!!

New release on http://www.scenetime.com

        Seed back for speed


...................................NFO:.................................................[img]http://img831.imageshack.us/img831/7600/81imgb1fzrlaa1500.jpg[/img]


[color=blue][size=5][b]A.Little.Help.2010.PPV.HDRip.XVID.AC3.HQ.Hive-CM8[/b][/size][/color]


[b]Thx Hive

CM8 Doing It Right The First Time :D


Source: PPV HDStream

Encode:
HDStream was very very good, still made the usual cleanup, looks like a bdrip in every way. 
enjoy

Video: 720x400 @bitrate 1800 2pass
Audio: English AC3 5.1 @448
Sample: yes, included[/b]


[url]http://www.imdb.com/title/tt1319722/[/url]


General
Complete name                    : A.Little.Help.2010.PPV.HDRip.XVID.AC3.HQ.Hive-CM8.avi
Format                           : AVI
Format/Info                      : Audio Video Interleave
File size                        : 1.67 GiB
Duration                         : 1h 48mn
Overall bit rate                 : 2 193 Kbps
Writing application              : Nandub v1.0rc2
Writing library                  : Nandub build 1853/release

Video
ID                               : 0
Format                           : MPEG-4 Visual
Format profile                   : Advanced Simple@L5
Format settings, BVOP            : 2
Format settings, QPel            : Yes
Format settings, GMC             : No warppoints
Format settings, Matrix          : Default (H.263)
Muxing mode                      : Packed bitstream
Codec ID                         : XVID
Codec ID/Hint                    : XviD
Duration                         : 1h 48mn
Bit rate                         : 1 800 Kbps
Width                            : 720 pixels
Height                           : 400 pixels
Display aspect ratio             : 16:9
Frame rate                       : 23.976 fps
Color space                      : YUV
Chroma subsampling               : 4:2:0
Bit depth                        : 8 bits
Scan type                        : Progressive
Compression mode                 : Lossy
Bits/(Pixel*Frame)               : 0.261
Stream size                      : 1.37 GiB (82%)
Writing library                  : XviD 1.2.1 (UTC 2008-12-04)

Audio
ID                               : 1
Format                           : AC-3
Format/Info                      : Audio Coding 3
Mode extension                   : CM (complete main)
Codec ID                         : 2000
Duration                         : 1h 48mn
Bit rate mode                    : Constant
Bit rate                         : 384 Kbps
Channel(s)                       : 6 channels
Channel positions                : Front: L C R, Side: L R, LFE
Sampling rate                    : 48.0 KHz
Bit depth                        : 16 bits
Compression mode                 : Lossy
Stream size                      : 299 MiB (18%)
Alignment                        : Split accross interleaves
Interleave, duration             : 42 ms (1.00 video frame)
Interleave, preload duration     : 500 ms

Plot:
A woman gets entangled in a series of bizarre lies in order to
take care of herself and her 12 year old son.

Cast:
Jenna Fischer       ...   Laura
Chris O'Donnell     ...   Bob
Kim Coates          ...   Mel Kaminsky
Lesley Ann Warren   ...   Joan
Brooke Smith        ...   Kathy Helms


[img]http://img716.imageshack.us/img716/6149/72830560.png[/img]
[img]http://img200.imageshack.us/img200/6453/66891619.png[/img]
[img]http://img171.imageshack.us/img171/5531/aallalalal.png[/img]
[img]http://img705.imageshack.us/img705/1672/aallal.png[/img]
[img]http://img851.imageshack.us/img851/381/aallalal.png[/img]
[img]http://img822.imageshack.us/img822/9229/aallalalalal.png[/img]
[img]http://img717.imageshack.us/img717/103/alalb.png[/img]
[img]http://img687.imageshack.us/img687/1985/aallalalalaalall.png[/img]
[img]http://img845.imageshack.us/img845/7325/aallalalalaall.png[/img]



Greetz

ViSiON,SiC,SANTi,3LT0N,YanKeeS,MAGNET,THC,T0XiC,LKRG,FANTASIA-PLAY,FANTASIA-M,FLAWL3SS,
D2U,WBZ,BHRG,NOVA,Vik,Rapeseed,SAFC,goldadvance,MEMORY100,KaN1vE,Unevano,Pinnz,Wayne
Mr Hive,cedrict wink,and all P2P groups
Great Work Guys :D

LOOKING FOR ANYTHING YOU WANT TO LOOK AND SOUND BETTER

CM8@hushmail.com